<svg xmlns="http://www.w3.org/2000/svg" width="1000" height="620" viewBox="0 0 1000 620">
<style><![CDATA[text{font-family:'Microsoft YaHei','SimHei',Arial,sans-serif}.thin{vector-effect:non-scaling-stroke}.fixed-label{font-size:14px}.axis{font-size:18px;font-weight:700}.panel{font-size:15px}]]></style>
<rect width="1000" height="620" fill="#ffffff"/>
<line class="thin" x1="95" y1="72.00" x2="935" y2="72.00" stroke="#cbd5e1" stroke-width="1" opacity="0.75"/>
<text x="30" y="77.00" class="fixed-label" fill="#475569">340</text>
<line class="thin" x1="95" y1="159.60" x2="935" y2="159.60" stroke="#cbd5e1" stroke-width="1" opacity="0.75"/>
<text x="30" y="164.60" class="fixed-label" fill="#475569">280</text>
<line class="thin" x1="95" y1="247.20" x2="935" y2="247.20" stroke="#cbd5e1" stroke-width="1" opacity="0.75"/>
<text x="30" y="252.20" class="fixed-label" fill="#475569">220</text>
<line class="thin" x1="95" y1="334.80" x2="935" y2="334.80" stroke="#cbd5e1" stroke-width="1" opacity="0.75"/>
<text x="30" y="339.80" class="fixed-label" fill="#475569">160</text>
<line class="thin" x1="95" y1="422.40" x2="935" y2="422.40" stroke="#cbd5e1" stroke-width="1" opacity="0.75"/>
<text x="30" y="427.40" class="fixed-label" fill="#475569">100</text>
<line class="thin" x1="95" y1="510.00" x2="935" y2="510.00" stroke="#cbd5e1" stroke-width="1" opacity="0.75"/>
<text x="30" y="515.00" class="fixed-label" fill="#475569">40</text>
<line class="thin" x1="95.00" y1="72" x2="95.00" y2="510" stroke="#e2e8f0" stroke-width="1" opacity="0.7"/>
<text x="95.00" y="532" class="fixed-label" fill="#475569" text-anchor="middle">-800</text>
<line class="thin" x1="200.00" y1="72" x2="200.00" y2="510" stroke="#e2e8f0" stroke-width="1" opacity="0.7"/>
<text x="200.00" y="532" class="fixed-label" fill="#475569" text-anchor="middle">-600</text>
<line class="thin" x1="305.00" y1="72" x2="305.00" y2="510" stroke="#e2e8f0" stroke-width="1" opacity="0.7"/>
<text x="305.00" y="532" class="fixed-label" fill="#475569" text-anchor="middle">-400</text>
<line class="thin" x1="410.00" y1="72" x2="410.00" y2="510" stroke="#e2e8f0" stroke-width="1" opacity="0.7"/>
<text x="410.00" y="532" class="fixed-label" fill="#475569" text-anchor="middle">-200</text>
<line class="thin" x1="515.00" y1="72" x2="515.00" y2="510" stroke="#e2e8f0" stroke-width="1" opacity="0.7"/>
<text x="515.00" y="532" class="fixed-label" fill="#475569" text-anchor="middle">0</text>
<line class="thin" x1="620.00" y1="72" x2="620.00" y2="510" stroke="#e2e8f0" stroke-width="1" opacity="0.7"/>
<text x="620.00" y="532" class="fixed-label" fill="#475569" text-anchor="middle">200</text>
<line class="thin" x1="725.00" y1="72" x2="725.00" y2="510" stroke="#e2e8f0" stroke-width="1" opacity="0.7"/>
<text x="725.00" y="532" class="fixed-label" fill="#475569" text-anchor="middle">400</text>
<line class="thin" x1="830.00" y1="72" x2="830.00" y2="510" stroke="#e2e8f0" stroke-width="1" opacity="0.7"/>
<text x="830.00" y="532" class="fixed-label" fill="#475569" text-anchor="middle">600</text>
<line class="thin" x1="935.00" y1="72" x2="935.00" y2="510" stroke="#e2e8f0" stroke-width="1" opacity="0.7"/>
<text x="935.00" y="532" class="fixed-label" fill="#475569" text-anchor="middle">800</text>
<polyline class="thin" points="95.00,435.61 200.00,443.26 305.00,450.91 410.00,458.55 515.00,466.20 620.00,473.85 725.00,481.49 830.00,489.14 935.00,496.79" fill="none" stroke="#315b91" stroke-width="4" stroke-linecap="round" stroke-linejoin="round"/>
<polyline class="thin" points="95.00,107.46 200.00,134.01 305.00,160.55 410.00,187.09 515.00,213.63 620.00,240.18 725.00,266.72 830.00,293.26 935.00,319.81" fill="none" stroke="#c85823" stroke-width="4" stroke-linecap="round" stroke-linejoin="round"/>
<circle cx="95.00" cy="435.61" r="5" fill="#315b91" stroke="#ffffff" stroke-width="1"/>
<text x="95.00" y="421.61" class="fixed-label" fill="#315b91" text-anchor="middle">91.0</text>
<circle cx="200.00" cy="443.26" r="5" fill="#315b91" stroke="#ffffff" stroke-width="1"/>
<text x="200.00" y="429.26" class="fixed-label" fill="#315b91" text-anchor="middle">85.7</text>
<circle cx="305.00" cy="450.91" r="5" fill="#315b91" stroke="#ffffff" stroke-width="1"/>
<text x="305.00" y="436.91" class="fixed-label" fill="#315b91" text-anchor="middle">80.5</text>
<circle cx="410.00" cy="458.55" r="5" fill="#315b91" stroke="#ffffff" stroke-width="1"/>
<text x="410.00" y="444.55" class="fixed-label" fill="#315b91" text-anchor="middle">75.2</text>
<circle cx="515.00" cy="466.20" r="5" fill="#315b91" stroke="#ffffff" stroke-width="1"/>
<text x="515.00" y="452.20" class="fixed-label" fill="#315b91" text-anchor="middle">70.0</text>
<circle cx="620.00" cy="473.85" r="5" fill="#315b91" stroke="#ffffff" stroke-width="1"/>
<text x="620.00" y="459.85" class="fixed-label" fill="#315b91" text-anchor="middle">64.8</text>
<circle cx="725.00" cy="481.49" r="5" fill="#315b91" stroke="#ffffff" stroke-width="1"/>
<text x="725.00" y="467.49" class="fixed-label" fill="#315b91" text-anchor="middle">59.5</text>
<circle cx="830.00" cy="489.14" r="5" fill="#315b91" stroke="#ffffff" stroke-width="1"/>
<text x="830.00" y="475.14" class="fixed-label" fill="#315b91" text-anchor="middle">54.3</text>
<circle cx="935.00" cy="496.79" r="5" fill="#315b91" stroke="#ffffff" stroke-width="1"/>
<text x="935.00" y="482.79" class="fixed-label" fill="#315b91" text-anchor="middle">49.0</text>
<rect x="90.00" y="102.46" width="10" height="10" fill="#c85823" stroke="#ffffff" stroke-width="1"/>
<text x="95.00" y="131.46" class="fixed-label" fill="#a03e18" text-anchor="middle">315.7</text>
<rect x="195.00" y="129.01" width="10" height="10" fill="#c85823" stroke="#ffffff" stroke-width="1"/>
<text x="200.00" y="158.01" class="fixed-label" fill="#a03e18" text-anchor="middle">297.5</text>
<rect x="300.00" y="155.55" width="10" height="10" fill="#c85823" stroke="#ffffff" stroke-width="1"/>
<text x="305.00" y="184.55" class="fixed-label" fill="#a03e18" text-anchor="middle">279.4</text>
<rect x="405.00" y="182.09" width="10" height="10" fill="#c85823" stroke="#ffffff" stroke-width="1"/>
<text x="410.00" y="211.09" class="fixed-label" fill="#a03e18" text-anchor="middle">261.2</text>
<rect x="510.00" y="208.63" width="10" height="10" fill="#c85823" stroke="#ffffff" stroke-width="1"/>
<text x="515.00" y="237.63" class="fixed-label" fill="#a03e18" text-anchor="middle">243.0</text>
<rect x="615.00" y="235.18" width="10" height="10" fill="#c85823" stroke="#ffffff" stroke-width="1"/>
<text x="620.00" y="264.18" class="fixed-label" fill="#a03e18" text-anchor="middle">224.8</text>
<rect x="720.00" y="261.72" width="10" height="10" fill="#c85823" stroke="#ffffff" stroke-width="1"/>
<text x="725.00" y="290.72" class="fixed-label" fill="#a03e18" text-anchor="middle">206.6</text>
<rect x="825.00" y="288.26" width="10" height="10" fill="#c85823" stroke="#ffffff" stroke-width="1"/>
<text x="830.00" y="317.26" class="fixed-label" fill="#a03e18" text-anchor="middle">188.4</text>
<rect x="930.00" y="314.81" width="10" height="10" fill="#c85823" stroke="#ffffff" stroke-width="1"/>
<text x="935.00" y="343.81" class="fixed-label" fill="#a03e18" text-anchor="middle">170.3</text>
<line class="thin" x1="95" y1="72" x2="95" y2="510" stroke="#23272d" stroke-width="2"/>
<line class="thin" x1="95" y1="510" x2="935" y2="510" stroke="#23272d" stroke-width="2"/>
<text x="515.0" y="579" class="axis" fill="#23272d" text-anchor="middle">测线距中心距离 / m</text>
<text x="95" y="48" class="axis" fill="#23272d">水深与覆盖宽度 / m</text>
<rect class="thin" x="747" y="88" width="172" height="76" rx="5" fill="#ffffff" fill-opacity="0.94" stroke="#b9bcc1"/>
<line class="thin" x1="763" y1="112" x2="801" y2="112" stroke="#315b91" stroke-width="4"/>
<circle cx="782" cy="112" r="5" fill="#315b91"/>
<text x="813" y="117" class="panel" fill="#23272d">海水深度</text>
<line class="thin" x1="763" y1="142" x2="801" y2="142" stroke="#c85823" stroke-width="4"/>
<rect x="777" y="137" width="10" height="10" fill="#c85823"/>
<text x="813" y="147" class="panel" fill="#23272d">覆盖宽度</text>
</svg>