<svg xmlns="http://www.w3.org/2000/svg" width="1120" height="690" viewBox="0 0 1120 690">
<style><![CDATA[text{font-family:'Microsoft YaHei','SimHei',Arial,sans-serif}.thin{vector-effect:non-scaling-stroke}.fixed-label{font-size:13px;vector-effect:non-scaling-size}.title{font-size:28px;font-weight:700}.axis{font-size:17px;font-weight:700}.panel{font-size:15px}]]></style>
<rect width="1120" height="690" fill="#f8fafc"/>
<text x="54" y="66" class="title" fill="#0f172a">问题一：多波束覆盖宽度与重叠率计算结果</text>
<line class="thin" x1="95" y1="130.00" x2="855" y2="130.00" stroke="#cbd5e1" stroke-width="1" opacity="0.75"/>
<text x="30" y="135.00" class="fixed-label" fill="#475569">335</text>
<line class="thin" x1="95" y1="208.00" x2="855" y2="208.00" stroke="#cbd5e1" stroke-width="1" opacity="0.75"/>
<text x="30" y="213.00" class="fixed-label" fill="#475569">277</text>
<line class="thin" x1="95" y1="286.00" x2="855" y2="286.00" stroke="#cbd5e1" stroke-width="1" opacity="0.75"/>
<text x="30" y="291.00" class="fixed-label" fill="#475569">218</text>
<line class="thin" x1="95" y1="364.00" x2="855" y2="364.00" stroke="#cbd5e1" stroke-width="1" opacity="0.75"/>
<text x="30" y="369.00" class="fixed-label" fill="#475569">160</text>
<line class="thin" x1="95" y1="442.00" x2="855" y2="442.00" stroke="#cbd5e1" stroke-width="1" opacity="0.75"/>
<text x="30" y="447.00" class="fixed-label" fill="#475569">102</text>
<line class="thin" x1="95" y1="520.00" x2="855" y2="520.00" stroke="#cbd5e1" stroke-width="1" opacity="0.75"/>
<text x="30" y="525.00" class="fixed-label" fill="#475569">44</text>
<line class="thin" x1="95.00" y1="130" x2="95.00" y2="520" stroke="#e2e8f0" stroke-width="1" opacity="0.7"/>
<text x="95.00" y="542" class="fixed-label" fill="#475569" text-anchor="middle">-800</text>
<line class="thin" x1="190.00" y1="130" x2="190.00" y2="520" stroke="#e2e8f0" stroke-width="1" opacity="0.7"/>
<text x="190.00" y="542" class="fixed-label" fill="#475569" text-anchor="middle">-600</text>
<line class="thin" x1="285.00" y1="130" x2="285.00" y2="520" stroke="#e2e8f0" stroke-width="1" opacity="0.7"/>
<text x="285.00" y="542" class="fixed-label" fill="#475569" text-anchor="middle">-400</text>
<line class="thin" x1="380.00" y1="130" x2="380.00" y2="520" stroke="#e2e8f0" stroke-width="1" opacity="0.7"/>
<text x="380.00" y="542" class="fixed-label" fill="#475569" text-anchor="middle">-200</text>
<line class="thin" x1="475.00" y1="130" x2="475.00" y2="520" stroke="#e2e8f0" stroke-width="1" opacity="0.7"/>
<text x="475.00" y="542" class="fixed-label" fill="#475569" text-anchor="middle">0</text>
<line class="thin" x1="570.00" y1="130" x2="570.00" y2="520" stroke="#e2e8f0" stroke-width="1" opacity="0.7"/>
<text x="570.00" y="542" class="fixed-label" fill="#475569" text-anchor="middle">200</text>
<line class="thin" x1="665.00" y1="130" x2="665.00" y2="520" stroke="#e2e8f0" stroke-width="1" opacity="0.7"/>
<text x="665.00" y="542" class="fixed-label" fill="#475569" text-anchor="middle">400</text>
<line class="thin" x1="760.00" y1="130" x2="760.00" y2="520" stroke="#e2e8f0" stroke-width="1" opacity="0.7"/>
<text x="760.00" y="542" class="fixed-label" fill="#475569" text-anchor="middle">600</text>
<line class="thin" x1="855.00" y1="130" x2="855.00" y2="520" stroke="#e2e8f0" stroke-width="1" opacity="0.7"/>
<text x="855.00" y="542" class="fixed-label" fill="#475569" text-anchor="middle">800</text>
<polyline class="thin" points="95.00,457.17 190.00,464.20 285.00,471.23 380.00,478.26 475.00,485.29 570.00,492.32 665.00,499.35 760.00,506.38 855.00,513.42" fill="none" stroke="#2563eb" stroke-width="3" stroke-linecap="round" stroke-linejoin="round"/>
<polyline class="thin" points="95.00,155.43 190.00,179.84 285.00,204.24 380.00,228.65 475.00,253.06 570.00,277.46 665.00,301.87 760.00,326.27 855.00,350.68" fill="none" stroke="#0f766e" stroke-width="3" stroke-linecap="round" stroke-linejoin="round"/>
<circle cx="95.00" cy="457.17" r="4" fill="#2563eb"/>
<text x="95.00" y="443.17" class="fixed-label" fill="#1e40af" text-anchor="middle">91.0</text>
<circle cx="190.00" cy="464.20" r="4" fill="#2563eb"/>
<text x="190.00" y="450.20" class="fixed-label" fill="#1e40af" text-anchor="middle">85.7</text>
<circle cx="285.00" cy="471.23" r="4" fill="#2563eb"/>
<text x="285.00" y="457.23" class="fixed-label" fill="#1e40af" text-anchor="middle">80.5</text>
<circle cx="380.00" cy="478.26" r="4" fill="#2563eb"/>
<text x="380.00" y="464.26" class="fixed-label" fill="#1e40af" text-anchor="middle">75.2</text>
<circle cx="475.00" cy="485.29" r="4" fill="#2563eb"/>
<text x="475.00" y="471.29" class="fixed-label" fill="#1e40af" text-anchor="middle">70.0</text>
<circle cx="570.00" cy="492.32" r="4" fill="#2563eb"/>
<text x="570.00" y="478.32" class="fixed-label" fill="#1e40af" text-anchor="middle">64.8</text>
<circle cx="665.00" cy="499.35" r="4" fill="#2563eb"/>
<text x="665.00" y="485.35" class="fixed-label" fill="#1e40af" text-anchor="middle">59.5</text>
<circle cx="760.00" cy="506.38" r="4" fill="#2563eb"/>
<text x="760.00" y="492.38" class="fixed-label" fill="#1e40af" text-anchor="middle">54.3</text>
<circle cx="855.00" cy="513.42" r="4" fill="#2563eb"/>
<text x="855.00" y="499.42" class="fixed-label" fill="#1e40af" text-anchor="middle">49.0</text>
<circle cx="95.00" cy="155.43" r="4" fill="#0f766e"/>
<text x="95.00" y="177.43" class="fixed-label" fill="#115e59" text-anchor="middle">315.7</text>
<circle cx="190.00" cy="179.84" r="4" fill="#0f766e"/>
<text x="190.00" y="201.84" class="fixed-label" fill="#115e59" text-anchor="middle">297.5</text>
<circle cx="285.00" cy="204.24" r="4" fill="#0f766e"/>
<text x="285.00" y="226.24" class="fixed-label" fill="#115e59" text-anchor="middle">279.4</text>
<circle cx="380.00" cy="228.65" r="4" fill="#0f766e"/>
<text x="380.00" y="250.65" class="fixed-label" fill="#115e59" text-anchor="middle">261.2</text>
<circle cx="475.00" cy="253.06" r="4" fill="#0f766e"/>
<text x="475.00" y="275.06" class="fixed-label" fill="#115e59" text-anchor="middle">243.0</text>
<circle cx="570.00" cy="277.46" r="4" fill="#0f766e"/>
<text x="570.00" y="299.46" class="fixed-label" fill="#115e59" text-anchor="middle">224.8</text>
<circle cx="665.00" cy="301.87" r="4" fill="#0f766e"/>
<text x="665.00" y="323.87" class="fixed-label" fill="#115e59" text-anchor="middle">206.6</text>
<circle cx="760.00" cy="326.27" r="4" fill="#0f766e"/>
<text x="760.00" y="348.27" class="fixed-label" fill="#115e59" text-anchor="middle">188.4</text>
<circle cx="855.00" cy="350.68" r="4" fill="#0f766e"/>
<text x="855.00" y="372.68" class="fixed-label" fill="#115e59" text-anchor="middle">170.3</text>
<rect class="thin" x="95" y="130" width="760" height="390" fill="none" stroke="#0f172a" stroke-width="2"/>
<text x="475.0" y="578" class="axis" fill="#1e293b" text-anchor="middle">测线距中心距离 / m</text>
<text x="95" y="114" class="axis" fill="#1e293b">水深与覆盖宽度 / m</text>
<rect class="thin" x="890" y="130" width="190" height="260" rx="10" fill="#ffffff" opacity="0.92" stroke="#b9c7ce"/>
<text x="910" y="176" class="axis" fill="#0f172a">结果摘要</text>
<text x="910" y="212" class="panel" fill="#102c3d">中心水深：70.0 m</text>
<text x="910" y="238" class="panel" fill="#102c3d">测线间距：200 m</text>
<text x="910" y="264" class="panel" fill="#102c3d">开角：120°</text>
<text x="910" y="290" class="panel" fill="#102c3d">坡度：1.5°</text>
<text x="910" y="316" class="panel" fill="#102c3d">最大覆盖宽度：315.71 m</text>
<line class="thin" x1="912" y1="340" x2="952" y2="340" stroke="#2563eb" stroke-width="3"/>
<text x="962" y="345" class="panel" fill="#1e293b">水深</text>
<line class="thin" x1="912" y1="368" x2="952" y2="368" stroke="#0f766e" stroke-width="3"/>
<text x="962" y="373" class="panel" fill="#1e293b">覆盖宽度</text>
</svg>