<svg xmlns="http://www.w3.org/2000/svg" width="1240" height="680" viewBox="0 0 1240 680">
<style><![CDATA[text{font-family:'Microsoft YaHei','SimHei',Arial,sans-serif}.thin{vector-effect:non-scaling-stroke}.fixed-label{font-size:14px}.axis{font-size:17px;font-weight:700}.note{font-size:15px;font-weight:700}]]></style>
<rect width="1240" height="680" fill="#ffffff"/>
<rect x="84.00" y="56" width="9.80" height="540" fill="rgb(21,70,101)" opacity="0.88"/>
<rect x="93.00" y="56" width="9.80" height="540" fill="rgb(22,72,102)" opacity="0.88"/>
<rect x="102.00" y="56" width="9.80" height="540" fill="rgb(23,74,104)" opacity="0.88"/>
<rect x="111.00" y="56" width="9.80" height="540" fill="rgb(24,75,105)" opacity="0.88"/>
<rect x="120.00" y="56" width="9.80" height="540" fill="rgb(25,77,106)" opacity="0.88"/>
<rect x="129.00" y="56" width="9.80" height="540" fill="rgb(26,78,108)" opacity="0.88"/>
<rect x="138.00" y="56" width="9.80" height="540" fill="rgb(27,80,109)" opacity="0.88"/>
<rect x="147.00" y="56" width="9.80" height="540" fill="rgb(28,81,110)" opacity="0.88"/>
<rect x="156.00" y="56" width="9.80" height="540" fill="rgb(28,83,112)" opacity="0.88"/>
<rect x="165.00" y="56" width="9.80" height="540" fill="rgb(29,85,113)" opacity="0.88"/>
<rect x="174.00" y="56" width="9.80" height="540" fill="rgb(30,86,114)" opacity="0.88"/>
<rect x="183.00" y="56" width="9.80" height="540" fill="rgb(31,88,116)" opacity="0.88"/>
<rect x="192.00" y="56" width="9.80" height="540" fill="rgb(32,89,117)" opacity="0.88"/>
<rect x="201.00" y="56" width="9.80" height="540" fill="rgb(33,91,118)" opacity="0.88"/>
<rect x="210.00" y="56" width="9.80" height="540" fill="rgb(34,93,120)" opacity="0.88"/>
<rect x="219.00" y="56" width="9.80" height="540" fill="rgb(35,94,121)" opacity="0.88"/>
<rect x="228.00" y="56" width="9.80" height="540" fill="rgb(36,96,122)" opacity="0.88"/>
<rect x="237.00" y="56" width="9.80" height="540" fill="rgb(37,97,124)" opacity="0.88"/>
<rect x="246.00" y="56" width="9.80" height="540" fill="rgb(38,99,125)" opacity="0.88"/>
<rect x="255.00" y="56" width="9.80" height="540" fill="rgb(39,101,126)" opacity="0.88"/>
<rect x="264.00" y="56" width="9.80" height="540" fill="rgb(40,102,128)" opacity="0.88"/>
<rect x="273.00" y="56" width="9.80" height="540" fill="rgb(41,104,129)" opacity="0.88"/>
<rect x="282.00" y="56" width="9.80" height="540" fill="rgb(42,105,131)" opacity="0.88"/>
<rect x="291.00" y="56" width="9.80" height="540" fill="rgb(43,107,132)" opacity="0.88"/>
<rect x="300.00" y="56" width="9.80" height="540" fill="rgb(44,109,133)" opacity="0.88"/>
<rect x="309.00" y="56" width="9.80" height="540" fill="rgb(45,110,135)" opacity="0.88"/>
<rect x="318.00" y="56" width="9.80" height="540" fill="rgb(46,112,136)" opacity="0.88"/>
<rect x="327.00" y="56" width="9.80" height="540" fill="rgb(47,113,137)" opacity="0.88"/>
<rect x="336.00" y="56" width="9.80" height="540" fill="rgb(48,115,139)" opacity="0.88"/>
<rect x="345.00" y="56" width="9.80" height="540" fill="rgb(49,116,140)" opacity="0.88"/>
<rect x="354.00" y="56" width="9.80" height="540" fill="rgb(50,118,141)" opacity="0.88"/>
<rect x="363.00" y="56" width="9.80" height="540" fill="rgb(51,120,143)" opacity="0.88"/>
<rect x="372.00" y="56" width="9.80" height="540" fill="rgb(52,121,144)" opacity="0.88"/>
<rect x="381.00" y="56" width="9.80" height="540" fill="rgb(53,123,145)" opacity="0.88"/>
<rect x="390.00" y="56" width="9.80" height="540" fill="rgb(53,124,147)" opacity="0.88"/>
<rect x="399.00" y="56" width="9.80" height="540" fill="rgb(54,126,148)" opacity="0.88"/>
<rect x="408.00" y="56" width="9.80" height="540" fill="rgb(55,128,149)" opacity="0.88"/>
<rect x="417.00" y="56" width="9.80" height="540" fill="rgb(56,129,151)" opacity="0.88"/>
<rect x="426.00" y="56" width="9.80" height="540" fill="rgb(57,131,152)" opacity="0.88"/>
<rect x="435.00" y="56" width="9.80" height="540" fill="rgb(58,132,153)" opacity="0.88"/>
<rect x="444.00" y="56" width="9.80" height="540" fill="rgb(59,134,155)" opacity="0.88"/>
<rect x="453.00" y="56" width="9.80" height="540" fill="rgb(60,136,156)" opacity="0.88"/>
<rect x="462.00" y="56" width="9.80" height="540" fill="rgb(61,137,157)" opacity="0.88"/>
<rect x="471.00" y="56" width="9.80" height="540" fill="rgb(62,139,159)" opacity="0.88"/>
<rect x="480.00" y="56" width="9.80" height="540" fill="rgb(63,140,160)" opacity="0.88"/>
<rect x="489.00" y="56" width="9.80" height="540" fill="rgb(64,142,161)" opacity="0.88"/>
<rect x="498.00" y="56" width="9.80" height="540" fill="rgb(65,144,163)" opacity="0.88"/>
<rect x="507.00" y="56" width="9.80" height="540" fill="rgb(66,145,164)" opacity="0.88"/>
<rect x="516.00" y="56" width="9.80" height="540" fill="rgb(67,147,166)" opacity="0.88"/>
<rect x="525.00" y="56" width="9.80" height="540" fill="rgb(68,148,167)" opacity="0.88"/>
<rect x="534.00" y="56" width="9.80" height="540" fill="rgb(69,150,168)" opacity="0.88"/>
<rect x="543.00" y="56" width="9.80" height="540" fill="rgb(70,151,170)" opacity="0.88"/>
<rect x="552.00" y="56" width="9.80" height="540" fill="rgb(71,153,171)" opacity="0.88"/>
<rect x="561.00" y="56" width="9.80" height="540" fill="rgb(72,155,172)" opacity="0.88"/>
<rect x="570.00" y="56" width="9.80" height="540" fill="rgb(73,156,174)" opacity="0.88"/>
<rect x="579.00" y="56" width="9.80" height="540" fill="rgb(74,158,175)" opacity="0.88"/>
<rect x="588.00" y="56" width="9.80" height="540" fill="rgb(75,159,176)" opacity="0.88"/>
<rect x="597.00" y="56" width="9.80" height="540" fill="rgb(76,161,178)" opacity="0.88"/>
<rect x="606.00" y="56" width="9.80" height="540" fill="rgb(77,163,179)" opacity="0.88"/>
<rect x="615.00" y="56" width="9.80" height="540" fill="rgb(78,164,180)" opacity="0.88"/>
<rect x="624.00" y="56" width="9.80" height="540" fill="rgb(79,166,182)" opacity="0.88"/>
<rect x="633.00" y="56" width="9.80" height="540" fill="rgb(82,167,183)" opacity="0.88"/>
<rect x="642.00" y="56" width="9.80" height="540" fill="rgb(84,168,184)" opacity="0.88"/>
<rect x="651.00" y="56" width="9.80" height="540" fill="rgb(87,170,185)" opacity="0.88"/>
<rect x="660.00" y="56" width="9.80" height="540" fill="rgb(89,171,186)" opacity="0.88"/>
<rect x="669.00" y="56" width="9.80" height="540" fill="rgb(91,172,187)" opacity="0.88"/>
<rect x="678.00" y="56" width="9.80" height="540" fill="rgb(94,174,188)" opacity="0.88"/>
<rect x="687.00" y="56" width="9.80" height="540" fill="rgb(96,175,189)" opacity="0.88"/>
<rect x="696.00" y="56" width="9.80" height="540" fill="rgb(99,176,190)" opacity="0.88"/>
<rect x="705.00" y="56" width="9.80" height="540" fill="rgb(101,177,191)" opacity="0.88"/>
<rect x="714.00" y="56" width="9.80" height="540" fill="rgb(104,179,192)" opacity="0.88"/>
<rect x="723.00" y="56" width="9.80" height="540" fill="rgb(106,180,193)" opacity="0.88"/>
<rect x="732.00" y="56" width="9.80" height="540" fill="rgb(108,181,194)" opacity="0.88"/>
<rect x="741.00" y="56" width="9.80" height="540" fill="rgb(111,183,195)" opacity="0.88"/>
<rect x="750.00" y="56" width="9.80" height="540" fill="rgb(113,184,196)" opacity="0.88"/>
<rect x="759.00" y="56" width="9.80" height="540" fill="rgb(116,185,197)" opacity="0.88"/>
<rect x="768.00" y="56" width="9.80" height="540" fill="rgb(118,187,198)" opacity="0.88"/>
<rect x="777.00" y="56" width="9.80" height="540" fill="rgb(121,188,199)" opacity="0.88"/>
<rect x="786.00" y="56" width="9.80" height="540" fill="rgb(123,189,200)" opacity="0.88"/>
<rect x="795.00" y="56" width="9.80" height="540" fill="rgb(125,191,201)" opacity="0.88"/>
<rect x="804.00" y="56" width="9.80" height="540" fill="rgb(128,192,202)" opacity="0.88"/>
<rect x="813.00" y="56" width="9.80" height="540" fill="rgb(130,193,203)" opacity="0.88"/>
<rect x="822.00" y="56" width="9.80" height="540" fill="rgb(133,194,204)" opacity="0.88"/>
<rect x="831.00" y="56" width="9.80" height="540" fill="rgb(135,196,205)" opacity="0.88"/>
<rect x="840.00" y="56" width="9.80" height="540" fill="rgb(138,197,206)" opacity="0.88"/>
<rect x="849.00" y="56" width="9.80" height="540" fill="rgb(140,198,207)" opacity="0.88"/>
<rect x="858.00" y="56" width="9.80" height="540" fill="rgb(142,200,208)" opacity="0.88"/>
<rect x="867.00" y="56" width="9.80" height="540" fill="rgb(145,201,209)" opacity="0.88"/>
<rect x="876.00" y="56" width="9.80" height="540" fill="rgb(147,202,210)" opacity="0.88"/>
<rect x="885.00" y="56" width="9.80" height="540" fill="rgb(150,204,211)" opacity="0.88"/>
<rect x="894.00" y="56" width="9.80" height="540" fill="rgb(152,205,212)" opacity="0.88"/>
<rect x="903.00" y="56" width="9.80" height="540" fill="rgb(155,206,213)" opacity="0.88"/>
<rect x="912.00" y="56" width="9.80" height="540" fill="rgb(157,208,215)" opacity="0.88"/>
<rect x="921.00" y="56" width="9.80" height="540" fill="rgb(159,209,216)" opacity="0.88"/>
<rect x="930.00" y="56" width="9.80" height="540" fill="rgb(162,210,217)" opacity="0.88"/>
<rect x="939.00" y="56" width="9.80" height="540" fill="rgb(164,212,218)" opacity="0.88"/>
<rect x="948.00" y="56" width="9.80" height="540" fill="rgb(167,213,219)" opacity="0.88"/>
<rect x="957.00" y="56" width="9.80" height="540" fill="rgb(169,214,220)" opacity="0.88"/>
<rect x="966.00" y="56" width="9.80" height="540" fill="rgb(172,215,221)" opacity="0.88"/>
<rect x="975.00" y="56" width="9.80" height="540" fill="rgb(174,217,222)" opacity="0.88"/>
<rect x="984.00" y="56" width="9.80" height="540" fill="rgb(176,218,223)" opacity="0.88"/>
<rect x="993.00" y="56" width="9.80" height="540" fill="rgb(179,219,224)" opacity="0.88"/>
<rect x="1002.00" y="56" width="9.80" height="540" fill="rgb(181,221,225)" opacity="0.88"/>
<rect x="1011.00" y="56" width="9.80" height="540" fill="rgb(184,222,226)" opacity="0.88"/>
<rect x="1020.00" y="56" width="9.80" height="540" fill="rgb(186,223,227)" opacity="0.88"/>
<rect x="1029.00" y="56" width="9.80" height="540" fill="rgb(189,225,228)" opacity="0.88"/>
<rect x="1038.00" y="56" width="9.80" height="540" fill="rgb(191,226,229)" opacity="0.88"/>
<rect x="1047.00" y="56" width="9.80" height="540" fill="rgb(193,227,230)" opacity="0.88"/>
<rect x="1056.00" y="56" width="9.80" height="540" fill="rgb(196,229,231)" opacity="0.88"/>
<rect x="1065.00" y="56" width="9.80" height="540" fill="rgb(198,230,232)" opacity="0.88"/>
<rect x="1074.00" y="56" width="9.80" height="540" fill="rgb(201,231,233)" opacity="0.88"/>
<rect x="1083.00" y="56" width="9.80" height="540" fill="rgb(203,233,234)" opacity="0.88"/>
<rect x="1092.00" y="56" width="9.80" height="540" fill="rgb(206,234,235)" opacity="0.88"/>
<rect x="1101.00" y="56" width="9.80" height="540" fill="rgb(208,235,236)" opacity="0.88"/>
<rect x="1110.00" y="56" width="9.80" height="540" fill="rgb(210,236,237)" opacity="0.88"/>
<rect x="1119.00" y="56" width="9.80" height="540" fill="rgb(213,238,238)" opacity="0.88"/>
<rect x="1128.00" y="56" width="9.80" height="540" fill="rgb(215,239,239)" opacity="0.88"/>
<rect x="1137.00" y="56" width="9.80" height="540" fill="rgb(218,240,240)" opacity="0.88"/>
<rect x="1146.00" y="56" width="9.80" height="540" fill="rgb(220,242,241)" opacity="0.88"/>
<rect x="1155.00" y="56" width="9.80" height="540" fill="rgb(223,243,242)" opacity="0.88"/>
<line class="thin" x1="104.77" y1="56" x2="104.77" y2="596" stroke="#ffffff" stroke-width="1" opacity="0.55"/>
<text x="104.77" y="620" class="fixed-label" fill="#475569" text-anchor="middle">-2</text>
<line class="thin" x1="234.58" y1="56" x2="234.58" y2="596" stroke="#ffffff" stroke-width="1" opacity="0.55"/>
<text x="234.58" y="620" class="fixed-label" fill="#475569" text-anchor="middle">-1.5</text>
<line class="thin" x1="364.38" y1="56" x2="364.38" y2="596" stroke="#ffffff" stroke-width="1" opacity="0.55"/>
<text x="364.38" y="620" class="fixed-label" fill="#475569" text-anchor="middle">-1</text>
<line class="thin" x1="494.19" y1="56" x2="494.19" y2="596" stroke="#ffffff" stroke-width="1" opacity="0.55"/>
<text x="494.19" y="620" class="fixed-label" fill="#475569" text-anchor="middle">-0.5</text>
<line class="thin" x1="624.00" y1="56" x2="624.00" y2="596" stroke="#ffffff" stroke-width="1" opacity="0.55"/>
<text x="624.00" y="620" class="fixed-label" fill="#475569" text-anchor="middle">0</text>
<line class="thin" x1="753.81" y1="56" x2="753.81" y2="596" stroke="#ffffff" stroke-width="1" opacity="0.55"/>
<text x="753.81" y="620" class="fixed-label" fill="#475569" text-anchor="middle">0.5</text>
<line class="thin" x1="883.62" y1="56" x2="883.62" y2="596" stroke="#ffffff" stroke-width="1" opacity="0.55"/>
<text x="883.62" y="620" class="fixed-label" fill="#475569" text-anchor="middle">1</text>
<line class="thin" x1="1013.42" y1="56" x2="1013.42" y2="596" stroke="#ffffff" stroke-width="1" opacity="0.55"/>
<text x="1013.42" y="620" class="fixed-label" fill="#475569" text-anchor="middle">1.5</text>
<line class="thin" x1="1143.23" y1="56" x2="1143.23" y2="596" stroke="#ffffff" stroke-width="1" opacity="0.55"/>
<text x="1143.23" y="620" class="fixed-label" fill="#475569" text-anchor="middle">2</text>
<line class="thin" x1="84" y1="576.00" x2="1164" y2="576.00" stroke="#ffffff" stroke-width="1" opacity="0.55"/>
<text x="62" y="581.00" class="fixed-label" fill="#475569" text-anchor="middle">-1</text>
<line class="thin" x1="84" y1="451.00" x2="1164" y2="451.00" stroke="#ffffff" stroke-width="1" opacity="0.55"/>
<text x="62" y="456.00" class="fixed-label" fill="#475569" text-anchor="middle">-0.5</text>
<line class="thin" x1="84" y1="326.00" x2="1164" y2="326.00" stroke="#ffffff" stroke-width="1" opacity="0.55"/>
<text x="62" y="331.00" class="fixed-label" fill="#475569" text-anchor="middle">0</text>
<line class="thin" x1="84" y1="201.00" x2="1164" y2="201.00" stroke="#ffffff" stroke-width="1" opacity="0.55"/>
<text x="62" y="206.00" class="fixed-label" fill="#475569" text-anchor="middle">0.5</text>
<line class="thin" x1="84" y1="76.00" x2="1164" y2="76.00" stroke="#ffffff" stroke-width="1" opacity="0.55"/>
<text x="62" y="81.00" class="fixed-label" fill="#475569" text-anchor="middle">1</text>
<polygon points="104.77,576.00 200.92,576.00 200.92,76.00 104.77,76.00" fill="#bde6e8" opacity="0.38"/>
<polygon points="192.07,576.00 280.65,576.00 280.65,76.00 192.07,76.00" fill="#bde6e8" opacity="0.38"/>
<polygon points="272.49,576.00 354.09,576.00 354.09,76.00 272.49,76.00" fill="#bde6e8" opacity="0.38"/>
<polygon points="346.57,576.00 421.74,576.00 421.74,76.00 346.57,76.00" fill="#bde6e8" opacity="0.38"/>
<polygon points="414.82,576.00 484.07,576.00 484.07,76.00 414.82,76.00" fill="#bde6e8" opacity="0.38"/>
<polygon points="477.69,576.00 541.48,576.00 541.48,76.00 477.69,76.00" fill="#bde6e8" opacity="0.38"/>
<polygon points="535.61,576.00 594.37,576.00 594.37,76.00 535.61,76.00" fill="#bde6e8" opacity="0.38"/>
<polygon points="588.96,576.00 643.10,576.00 643.10,76.00 588.96,76.00" fill="#bde6e8" opacity="0.38"/>
<polygon points="638.11,576.00 687.99,576.00 687.99,76.00 638.11,76.00" fill="#bde6e8" opacity="0.38"/>
<polygon points="683.39,576.00 729.34,576.00 729.34,76.00 683.39,76.00" fill="#bde6e8" opacity="0.38"/>
<polygon points="725.10,576.00 767.43,576.00 767.43,76.00 725.10,76.00" fill="#bde6e8" opacity="0.38"/>
<polygon points="763.53,576.00 802.52,576.00 802.52,76.00 763.53,76.00" fill="#bde6e8" opacity="0.38"/>
<polygon points="798.93,576.00 834.85,576.00 834.85,76.00 798.93,76.00" fill="#bde6e8" opacity="0.38"/>
<polygon points="831.54,576.00 864.63,576.00 864.63,76.00 831.54,76.00" fill="#bde6e8" opacity="0.38"/>
<polygon points="861.58,576.00 892.06,576.00 892.06,76.00 861.58,76.00" fill="#bde6e8" opacity="0.38"/>
<polygon points="889.26,576.00 917.34,576.00 917.34,76.00 889.26,76.00" fill="#bde6e8" opacity="0.38"/>
<polygon points="914.75,576.00 940.62,576.00 940.62,76.00 914.75,76.00" fill="#bde6e8" opacity="0.38"/>
<polygon points="938.24,576.00 962.07,576.00 962.07,76.00 938.24,76.00" fill="#bde6e8" opacity="0.38"/>
<polygon points="959.87,576.00 981.82,576.00 981.82,76.00 959.87,76.00" fill="#bde6e8" opacity="0.38"/>
<polygon points="979.80,576.00 1000.03,576.00 1000.03,76.00 979.80,76.00" fill="#bde6e8" opacity="0.38"/>
<polygon points="998.16,576.00 1016.79,576.00 1016.79,76.00 998.16,76.00" fill="#bde6e8" opacity="0.38"/>
<polygon points="1015.08,576.00 1032.24,576.00 1032.24,76.00 1015.08,76.00" fill="#bde6e8" opacity="0.38"/>
<polygon points="1030.66,576.00 1046.47,576.00 1046.47,76.00 1030.66,76.00" fill="#bde6e8" opacity="0.38"/>
<polygon points="1045.01,576.00 1059.58,576.00 1059.58,76.00 1045.01,76.00" fill="#bde6e8" opacity="0.38"/>
<polygon points="1058.24,576.00 1071.65,576.00 1071.65,76.00 1058.24,76.00" fill="#bde6e8" opacity="0.38"/>
<polygon points="1070.42,576.00 1082.78,576.00 1082.78,76.00 1070.42,76.00" fill="#bde6e8" opacity="0.38"/>
<polygon points="1081.64,576.00 1093.03,576.00 1093.03,76.00 1081.64,76.00" fill="#bde6e8" opacity="0.38"/>
<polygon points="1091.98,576.00 1102.47,576.00 1102.47,76.00 1091.98,76.00" fill="#bde6e8" opacity="0.38"/>
<polygon points="1101.50,576.00 1111.16,576.00 1111.16,76.00 1101.50,76.00" fill="#bde6e8" opacity="0.38"/>
<polygon points="1110.27,576.00 1119.18,576.00 1119.18,76.00 1110.27,76.00" fill="#bde6e8" opacity="0.38"/>
<polygon points="1118.36,576.00 1126.56,576.00 1126.56,76.00 1118.36,76.00" fill="#bde6e8" opacity="0.38"/>
<polygon points="1125.80,576.00 1133.36,576.00 1133.36,76.00 1125.80,76.00" fill="#bde6e8" opacity="0.38"/>
<polygon points="1132.66,576.00 1139.62,576.00 1139.62,76.00 1132.66,76.00" fill="#bde6e8" opacity="0.38"/>
<polygon points="1138.98,576.00 1143.23,576.00 1143.23,76.00 1138.98,76.00" fill="#bde6e8" opacity="0.38"/>
<polygon points="192.07,576.00 200.92,576.00 200.92,76.00 192.07,76.00" fill="#e75e36" opacity="0.62"/>
<polygon points="272.49,576.00 280.65,576.00 280.65,76.00 272.49,76.00" fill="#e75e36" opacity="0.62"/>
<polygon points="346.57,576.00 354.09,576.00 354.09,76.00 346.57,76.00" fill="#e75e36" opacity="0.62"/>
<polygon points="414.82,576.00 421.74,576.00 421.74,76.00 414.82,76.00" fill="#e75e36" opacity="0.62"/>
<polygon points="477.69,576.00 484.07,576.00 484.07,76.00 477.69,76.00" fill="#e75e36" opacity="0.62"/>
<polygon points="535.61,576.00 541.48,576.00 541.48,76.00 535.61,76.00" fill="#e75e36" opacity="0.62"/>
<polygon points="588.96,576.00 594.37,576.00 594.37,76.00 588.96,76.00" fill="#e75e36" opacity="0.62"/>
<polygon points="638.11,576.00 643.10,576.00 643.10,76.00 638.11,76.00" fill="#e75e36" opacity="0.62"/>
<polygon points="683.39,576.00 687.99,576.00 687.99,76.00 683.39,76.00" fill="#e75e36" opacity="0.62"/>
<polygon points="725.10,576.00 729.34,576.00 729.34,76.00 725.10,76.00" fill="#e75e36" opacity="0.62"/>
<polygon points="763.53,576.00 767.43,576.00 767.43,76.00 763.53,76.00" fill="#e75e36" opacity="0.62"/>
<polygon points="798.93,576.00 802.52,576.00 802.52,76.00 798.93,76.00" fill="#e75e36" opacity="0.62"/>
<polygon points="831.54,576.00 834.85,576.00 834.85,76.00 831.54,76.00" fill="#e75e36" opacity="0.62"/>
<polygon points="861.58,576.00 864.63,576.00 864.63,76.00 861.58,76.00" fill="#e75e36" opacity="0.62"/>
<polygon points="889.26,576.00 892.06,576.00 892.06,76.00 889.26,76.00" fill="#e75e36" opacity="0.62"/>
<polygon points="914.75,576.00 917.34,576.00 917.34,76.00 914.75,76.00" fill="#e75e36" opacity="0.62"/>
<polygon points="938.24,576.00 940.62,576.00 940.62,76.00 938.24,76.00" fill="#e75e36" opacity="0.62"/>
<polygon points="959.87,576.00 962.07,576.00 962.07,76.00 959.87,76.00" fill="#e75e36" opacity="0.62"/>
<polygon points="979.80,576.00 981.82,576.00 981.82,76.00 979.80,76.00" fill="#e75e36" opacity="0.62"/>
<polygon points="998.16,576.00 1000.03,576.00 1000.03,76.00 998.16,76.00" fill="#e75e36" opacity="0.62"/>
<polygon points="1015.08,576.00 1016.79,576.00 1016.79,76.00 1015.08,76.00" fill="#e75e36" opacity="0.62"/>
<polygon points="1030.66,576.00 1032.24,576.00 1032.24,76.00 1030.66,76.00" fill="#e75e36" opacity="0.62"/>
<polygon points="1045.01,576.00 1046.47,576.00 1046.47,76.00 1045.01,76.00" fill="#e75e36" opacity="0.62"/>
<polygon points="1058.24,576.00 1059.58,576.00 1059.58,76.00 1058.24,76.00" fill="#e75e36" opacity="0.62"/>
<polygon points="1070.42,576.00 1071.65,576.00 1071.65,76.00 1070.42,76.00" fill="#e75e36" opacity="0.62"/>
<polygon points="1081.64,576.00 1082.78,576.00 1082.78,76.00 1081.64,76.00" fill="#e75e36" opacity="0.62"/>
<polygon points="1091.98,576.00 1093.03,576.00 1093.03,76.00 1091.98,76.00" fill="#e75e36" opacity="0.62"/>
<polygon points="1101.50,576.00 1102.47,576.00 1102.47,76.00 1101.50,76.00" fill="#e75e36" opacity="0.62"/>
<polygon points="1110.27,576.00 1111.16,576.00 1111.16,76.00 1110.27,76.00" fill="#e75e36" opacity="0.62"/>
<polygon points="1118.36,576.00 1119.18,576.00 1119.18,76.00 1118.36,76.00" fill="#e75e36" opacity="0.62"/>
<polygon points="1125.80,576.00 1126.56,576.00 1126.56,76.00 1125.80,76.00" fill="#e75e36" opacity="0.62"/>
<polygon points="1132.66,576.00 1133.36,576.00 1133.36,76.00 1132.66,76.00" fill="#e75e36" opacity="0.62"/>
<polygon points="1138.98,576.00 1139.62,576.00 1139.62,76.00 1138.98,76.00" fill="#e75e36" opacity="0.62"/>
<line class="thin" x1="155.03" y1="576.00" x2="155.03" y2="76.00" stroke="#fff7ed" stroke-width="1.6" stroke-linecap="round" opacity="0.96"/>
<rect class="thin" x="142.03" y="315.00" width="26" height="22" rx="5" fill="#ffffff" opacity="0.86" stroke="#94a3b8" stroke-width="1"/>
<text x="155.03" y="331.00" class="fixed-label" fill="#122a3a" text-anchor="middle">1</text>
<line class="thin" x1="238.36" y1="576.00" x2="238.36" y2="76.00" stroke="#fff7ed" stroke-width="1.6" stroke-linecap="round" opacity="0.96"/>
<line class="thin" x1="315.14" y1="576.00" x2="315.14" y2="76.00" stroke="#fff7ed" stroke-width="1.6" stroke-linecap="round" opacity="0.96"/>
<line class="thin" x1="385.86" y1="576.00" x2="385.86" y2="76.00" stroke="#fff7ed" stroke-width="1.6" stroke-linecap="round" opacity="0.96"/>
<line class="thin" x1="451.01" y1="576.00" x2="451.01" y2="76.00" stroke="#fff7ed" stroke-width="1.6" stroke-linecap="round" opacity="0.96"/>
<rect class="thin" x="438.01" y="315.00" width="26" height="22" rx="5" fill="#ffffff" opacity="0.86" stroke="#94a3b8" stroke-width="1"/>
<text x="451.01" y="331.00" class="fixed-label" fill="#122a3a" text-anchor="middle">5</text>
<line class="thin" x1="511.03" y1="576.00" x2="511.03" y2="76.00" stroke="#fff7ed" stroke-width="1.6" stroke-linecap="round" opacity="0.96"/>
<line class="thin" x1="566.32" y1="576.00" x2="566.32" y2="76.00" stroke="#fff7ed" stroke-width="1.6" stroke-linecap="round" opacity="0.96"/>
<line class="thin" x1="617.26" y1="576.00" x2="617.26" y2="76.00" stroke="#fff7ed" stroke-width="1.6" stroke-linecap="round" opacity="0.96"/>
<line class="thin" x1="664.18" y1="576.00" x2="664.18" y2="76.00" stroke="#fff7ed" stroke-width="1.6" stroke-linecap="round" opacity="0.96"/>
<line class="thin" x1="707.41" y1="576.00" x2="707.41" y2="76.00" stroke="#fff7ed" stroke-width="1.6" stroke-linecap="round" opacity="0.96"/>
<rect class="thin" x="694.41" y="315.00" width="26" height="22" rx="5" fill="#ffffff" opacity="0.86" stroke="#94a3b8" stroke-width="1"/>
<text x="707.41" y="331.00" class="fixed-label" fill="#122a3a" text-anchor="middle">10</text>
<line class="thin" x1="747.23" y1="576.00" x2="747.23" y2="76.00" stroke="#fff7ed" stroke-width="1.6" stroke-linecap="round" opacity="0.96"/>
<line class="thin" x1="783.91" y1="576.00" x2="783.91" y2="76.00" stroke="#fff7ed" stroke-width="1.6" stroke-linecap="round" opacity="0.96"/>
<line class="thin" x1="817.70" y1="576.00" x2="817.70" y2="76.00" stroke="#fff7ed" stroke-width="1.6" stroke-linecap="round" opacity="0.96"/>
<line class="thin" x1="848.83" y1="576.00" x2="848.83" y2="76.00" stroke="#fff7ed" stroke-width="1.6" stroke-linecap="round" opacity="0.96"/>
<line class="thin" x1="877.51" y1="576.00" x2="877.51" y2="76.00" stroke="#fff7ed" stroke-width="1.6" stroke-linecap="round" opacity="0.96"/>
<rect class="thin" x="864.51" y="315.00" width="26" height="22" rx="5" fill="#ffffff" opacity="0.86" stroke="#94a3b8" stroke-width="1"/>
<text x="877.51" y="331.00" class="fixed-label" fill="#122a3a" text-anchor="middle">15</text>
<line class="thin" x1="903.93" y1="576.00" x2="903.93" y2="76.00" stroke="#fff7ed" stroke-width="1.6" stroke-linecap="round" opacity="0.96"/>
<line class="thin" x1="928.27" y1="576.00" x2="928.27" y2="76.00" stroke="#fff7ed" stroke-width="1.6" stroke-linecap="round" opacity="0.96"/>
<line class="thin" x1="950.69" y1="576.00" x2="950.69" y2="76.00" stroke="#fff7ed" stroke-width="1.6" stroke-linecap="round" opacity="0.96"/>
<line class="thin" x1="971.35" y1="576.00" x2="971.35" y2="76.00" stroke="#fff7ed" stroke-width="1.6" stroke-linecap="round" opacity="0.96"/>
<line class="thin" x1="990.37" y1="576.00" x2="990.37" y2="76.00" stroke="#fff7ed" stroke-width="1.6" stroke-linecap="round" opacity="0.96"/>
<rect class="thin" x="977.37" y="315.00" width="26" height="22" rx="5" fill="#ffffff" opacity="0.86" stroke="#94a3b8" stroke-width="1"/>
<text x="990.37" y="331.00" class="fixed-label" fill="#122a3a" text-anchor="middle">20</text>
<line class="thin" x1="1007.90" y1="576.00" x2="1007.90" y2="76.00" stroke="#fff7ed" stroke-width="1.6" stroke-linecap="round" opacity="0.96"/>
<line class="thin" x1="1024.05" y1="576.00" x2="1024.05" y2="76.00" stroke="#fff7ed" stroke-width="1.6" stroke-linecap="round" opacity="0.96"/>
<line class="thin" x1="1038.92" y1="576.00" x2="1038.92" y2="76.00" stroke="#fff7ed" stroke-width="1.6" stroke-linecap="round" opacity="0.96"/>
<line class="thin" x1="1052.63" y1="576.00" x2="1052.63" y2="76.00" stroke="#fff7ed" stroke-width="1.6" stroke-linecap="round" opacity="0.96"/>
<line class="thin" x1="1065.25" y1="576.00" x2="1065.25" y2="76.00" stroke="#fff7ed" stroke-width="1.6" stroke-linecap="round" opacity="0.96"/>
<rect class="thin" x="1052.25" y="315.00" width="26" height="22" rx="5" fill="#ffffff" opacity="0.86" stroke="#94a3b8" stroke-width="1"/>
<text x="1065.25" y="331.00" class="fixed-label" fill="#122a3a" text-anchor="middle">25</text>
<line class="thin" x1="1076.88" y1="576.00" x2="1076.88" y2="76.00" stroke="#fff7ed" stroke-width="1.6" stroke-linecap="round" opacity="0.96"/>
<line class="thin" x1="1087.59" y1="576.00" x2="1087.59" y2="76.00" stroke="#fff7ed" stroke-width="1.6" stroke-linecap="round" opacity="0.96"/>
<line class="thin" x1="1097.46" y1="576.00" x2="1097.46" y2="76.00" stroke="#fff7ed" stroke-width="1.6" stroke-linecap="round" opacity="0.96"/>
<line class="thin" x1="1106.55" y1="576.00" x2="1106.55" y2="76.00" stroke="#fff7ed" stroke-width="1.6" stroke-linecap="round" opacity="0.96"/>
<line class="thin" x1="1114.93" y1="576.00" x2="1114.93" y2="76.00" stroke="#fff7ed" stroke-width="1.6" stroke-linecap="round" opacity="0.96"/>
<rect class="thin" x="1101.93" y="315.00" width="26" height="22" rx="5" fill="#ffffff" opacity="0.86" stroke="#94a3b8" stroke-width="1"/>
<text x="1114.93" y="331.00" class="fixed-label" fill="#122a3a" text-anchor="middle">30</text>
<line class="thin" x1="1122.64" y1="576.00" x2="1122.64" y2="76.00" stroke="#fff7ed" stroke-width="1.6" stroke-linecap="round" opacity="0.96"/>
<line class="thin" x1="1129.75" y1="576.00" x2="1129.75" y2="76.00" stroke="#fff7ed" stroke-width="1.6" stroke-linecap="round" opacity="0.96"/>
<line class="thin" x1="1136.30" y1="576.00" x2="1136.30" y2="76.00" stroke="#fff7ed" stroke-width="1.6" stroke-linecap="round" opacity="0.96"/>
<line class="thin" x1="1142.33" y1="576.00" x2="1142.33" y2="76.00" stroke="#fff7ed" stroke-width="1.6" stroke-linecap="round" opacity="0.96"/>
<rect class="thin" x="1129.33" y="315.00" width="26" height="22" rx="5" fill="#ffffff" opacity="0.86" stroke="#94a3b8" stroke-width="1"/>
<text x="1142.33" y="331.00" class="fixed-label" fill="#122a3a" text-anchor="middle">34</text>
<polygon class="thin" points="104.77,576.00 1143.23,576.00 1143.23,76.00 104.77,76.00" fill="none" stroke="#102c3d" stroke-width="3"/>
<text x="624.0" y="651" class="axis" fill="#1e293b" text-anchor="middle">东西方向 / n mile（西深，东浅）</text>
<text x="84" y="44" class="axis" fill="#1e293b">南北方向 / n mile</text>
<text x="102" y="86" class="note" fill="#ffffff">深水侧（西）</text>
<text x="1146" y="86" class="note" fill="#25384a" text-anchor="end">浅水侧（东）</text>
<rect x="474" y="72" width="330" height="38" rx="5" fill="#ffffff" fill-opacity="0.86" stroke="#b9c7ce"/>
<rect x="490" y="83" width="26" height="14" fill="#e75e36" fill-opacity="0.72"/>
<text x="523" y="96" class="fixed-label" fill="#263442">重叠区域</text>
<line x1="616" y1="90" x2="648" y2="90" stroke="#fff7ed" stroke-width="3"/>
<text x="658" y="96" class="fixed-label" fill="#263442">实际测线（编号）</text>
</svg>